<svg xmlns="http://www.w3.org/2000/svg" viewBox="0 0 400 100" fill="none">
  <defs>
    <linearGradient id="primaryGrad" x1="0%" y1="0%" x2="100%" y2="100%">
      <stop offset="0%" stop-color="#6366F1"/>
      <stop offset="50%" stop-color="#8B5CF6"/>
      <stop offset="100%" stop-color="#A855F7"/>
    </linearGradient>
    <linearGradient id="secondaryGrad" x1="0%" y1="100%" x2="100%" y2="0%">
      <stop offset="0%" stop-color="#4F46E5"/>
      <stop offset="100%" stop-color="#7C3AED"/>
    </linearGradient>
    <linearGradient id="accentGrad" x1="50%" y1="0%" x2="50%" y2="100%">
      <stop offset="0%" stop-color="#EC4899"/>
      <stop offset="100%" stop-color="#F472B6"/>
    </linearGradient>
    <filter id="glow" x="-20%" y="-20%" width="140%" height="140%">
      <feGaussianBlur stdDeviation="1.5" result="coloredBlur"/>
      <feMerge>
        <feMergeNode in="coloredBlur"/>
        <feMergeNode in="SourceGraphic"/>
      </feMerge>
    </filter>
  </defs>
  
  <!-- Icono principal -->
  <g transform="translate(50, 50)" filter="url(#glow)">
    <path d="M-24 16 L-24 -6 Q-24 -16 -14 -16 L14 -16 Q24 -16 24 -6 L24 16 L24 28 L-24 28 Z" fill="url(#secondaryGrad)"/>
    <rect x="-18" y="-8" width="7" height="9" rx="1" fill="#E0E7FF" opacity="0.9"/>
    <rect x="-5" y="-8" width="7" height="9" rx="1" fill="#E0E7FF" opacity="0.9"/>
    <rect x="8" y="-8" width="7" height="9" rx="1" fill="#E0E7FF" opacity="0.9"/>
    <rect x="-18" y="6" width="7" height="9" rx="1" fill="#E0E7FF" opacity="0.7"/>
    <rect x="-5" y="6" width="7" height="9" rx="1" fill="#E0E7FF" opacity="0.7"/>
    <rect x="8" y="6" width="7" height="9" rx="1" fill="#E0E7FF" opacity="0.7"/>
    <path d="M-14 -22 L-14 -16 L14 -16 L14 -22 Q14 -26 10 -26 L-10 -26 Q-14 -26 -14 -22" fill="url(#accentGrad)"/>
    <path d="M-7 -26 L0 -32 L7 -26" stroke="#F472B6" stroke-width="2" stroke-linecap="round" fill="none"/>
    <path d="M-30 28 L30 28" stroke="#E0E7FF" stroke-width="2" stroke-linecap="round" opacity="0.5"/>
  </g>
  
  <text x="115" y="45" font-family="system-ui, -apple-system, Inter, sans-serif" font-weight="800" font-size="42" fill="#0F172A" letter-spacing="-1">BM</text>
  <text x="115" y="65" font-family="system-ui, -apple-system, Inter, sans-serif" font-weight="700" font-size="14" fill="#6366F1" letter-spacing="4">BUILD MANAGE</text>
</svg>